<svg width="16" height="16" viewBox="0 0 16 16" fill="none" xmlns="http://www.w3.org/2000/svg">
  <!-- Background Circle -->
  <circle cx="8" cy="8" r="8" fill="url(#gradient-bg)"/>
  
  <!-- Simplified Color Palette -->
  <g transform="translate(3, 3)">
    <!-- Main Palette Shape -->
    <path d="M5 1C7.2091 1 9 2.79086 9 5C9 5.92435 8.63381 6.76344 8.03553 7.36172L7.32843 6.65462C7.73658 6.24646 8 5.65685 8 5C8 3.34315 6.65685 2 5 2C3.34315 2 2 3.34315 2 5C2 6.65685 3.34315 8 5 8H6V9H5C2.79086 9 1 7.20914 1 5C1 2.79086 2.79086 1 5 1Z" fill="white"/>
    
    <!-- Color Dots -->
    <circle cx="3.5" cy="3.5" r="0.7" fill="#FF6B9D"/>
    <circle cx="5" cy="3" r="0.7" fill="#4ECDC4"/>
    <circle cx="6.5" cy="3.5" r="0.7" fill="#45B7D1"/>
    <circle cx="4" cy="5" r="0.7" fill="#96CEB4"/>
    <circle cx="5.5" cy="5" r="0.7" fill="#FECA57"/>
    
    <!-- Small Brush -->
    <rect x="7" y="6" width="1" height="3" rx="0.5" fill="white"/>
    <circle cx="7.5" cy="5.5" r="0.5" fill="#8B5CF6"/>
  </g>
  
  <!-- Gradient Definitions -->
  <defs>
    <linearGradient id="gradient-bg" x1="0%" y1="0%" x2="100%" y2="100%">
      <stop offset="0%" style="stop-color:#667eea;stop-opacity:1" />
      <stop offset="100%" style="stop-color:#764ba2;stop-opacity:1" />
    </linearGradient>
  </defs>
</svg>