<svg width="32" height="32" viewBox="0 0 32 32" fill="none" xmlns="http://www.w3.org/2000/svg">
  <!-- Background Circle -->
  <circle cx="16" cy="16" r="16" fill="url(#gradient-bg)"/>
  
  <!-- Color Palette Icon -->
  <g transform="translate(6, 6)">
    <!-- Main Palette Shape -->
    <path d="M10 2C14.4183 2 18 5.58172 18 10C18 11.8487 17.2676 13.5269 16.0711 14.7234L14.6569 13.3091C15.4732 12.4928 16 11.3807 16 10C16 6.68629 13.3137 4 10 4C6.68629 4 4 6.68629 4 10C4 13.3137 6.68629 16 10 16H12V18H10C5.58172 18 2 14.4183 2 10C2 5.58172 5.58172 2 10 2Z" fill="white"/>
    
    <!-- Color Dots -->
    <circle cx="7" cy="7" r="1.5" fill="#FF6B9D"/>
    <circle cx="10" cy="6" r="1.5" fill="#4ECDC4"/>
    <circle cx="13" cy="7" r="1.5" fill="#45B7D1"/>
    <circle cx="8" cy="10" r="1.5" fill="#96CEB4"/>
    <circle cx="11" cy="10" r="1.5" fill="#FECA57"/>
    <circle cx="9" cy="13" r="1.5" fill="#FF9FF3"/>
    
    <!-- Brush Handle -->
    <rect x="14" y="12" width="2" height="6" rx="1" fill="white"/>
    <circle cx="15" cy="11" r="1" fill="#8B5CF6"/>
  </g>
  
  <!-- Gradient Definitions -->
  <defs>
    <linearGradient id="gradient-bg" x1="0%" y1="0%" x2="100%" y2="100%">
      <stop offset="0%" style="stop-color:#667eea;stop-opacity:1" />
      <stop offset="100%" style="stop-color:#764ba2;stop-opacity:1" />
    </linearGradient>
  </defs>
</svg>