<svg width="512" height="512" viewBox="0 0 512 512" fill="none" xmlns="http://www.w3.org/2000/svg">
  <!-- Background -->
  <rect width="512" height="512" rx="50" fill="url(#gradient-bg)"/>
  
  <!-- Color Palette Icon -->
  <g transform="translate(100, 100)">
    <!-- Main Palette Shape -->
    <path d="M156 32C210.1765 32 256 77.8235 256 132C256 158.5098 246.7887 182.8456 230.3986 201.7509L222.6014 194.2491C236.6887 177.4911 244 155.9216 244 132C244 84.4446 205.5554 46 156 46C106.4446 46 68 84.4446 68 132C68 179.5554 106.4446 218 156 218H186V230H156C77.8235 230 32 184.1765 32 132C32 79.8235 77.8235 32 156 32Z" fill="white" stroke="white" stroke-width="2"/>
    
    <!-- Color Dots - Large -->
    <circle cx="116" cy="96" r="16" fill="#FF6B9D"/>
    <circle cx="156" cy="84" r="16" fill="#4ECDC4"/>
    <circle cx="196" cy="96" r="16" fill="#45B7D1"/>
    <circle cx="122" cy="132" r="16" fill="#96CEB4"/>
    <circle cx="162" cy="132" r="16" fill="#FECA57"/>
    <circle cx="130" cy="168" r="16" fill="#FF9FF3"/>
    <circle cx="170" cy="168" r="16" fill="#A8E6CF"/>
    <circle cx="140" cy="204" r="16" fill="#FFB347"/>
    
    <!-- Brush Handle -->
    <rect x="210" y="160" width="16" height="60" rx="8" fill="white"/>
    <ellipse cx="218" cy="152" rx="12" ry="20" fill="#8B5CF6"/>
    
    <!-- AI Sparkle Effects -->
    <g opacity="0.9">
      <path d="M60 60L66 46L72 60L86 54L72 68L66 82L60 68L46 54Z" fill="#FFD700"/>
      <path d="M240 40L244 32L248 40L256 36L248 44L244 52L240 44L232 36Z" fill="#FFD700"/>
      <path d="M260 200L263 194L266 200L272 197L266 203L263 209L260 203L254 197Z" fill="#FFD700"/>
      <path d="M80 240L82 236L84 240L88 238L84 242L82 246L80 242L76 238Z" fill="#FFD700"/>
    </g>
    
    <!-- Color Theory Symbol -->
    <g transform="translate(280, 50)" opacity="0.7">
      <circle cx="16" cy="16" r="12" fill="#FF6B9D" opacity="0.8"/>
      <circle cx="32" cy="16" r="12" fill="#4ECDC4" opacity="0.8"/>
      <circle cx="24" cy="30" r="12" fill="#FECA57" opacity="0.8"/>
    </g>
  </g>
  
  <!-- Gradient Definitions -->
  <defs>
    <linearGradient id="gradient-bg" x1="0%" y1="0%" x2="100%" y2="100%">
      <stop offset="0%" style="stop-color:#667eea;stop-opacity:1" />
      <stop offset="25%" style="stop-color:#764ba2;stop-opacity:1" />
      <stop offset="50%" style="stop-color:#f093fb;stop-opacity:1" />
      <stop offset="75%" style="stop-color:#f5576c;stop-opacity:1" />
      <stop offset="100%" style="stop-color:#4facfe;stop-opacity:1" />
    </linearGradient>
  </defs>
</svg>